<svg id="Layer_1" data-name="Layer 1" xmlns="http://www.w3.org/2000/svg" viewBox="0 0 105.65 226.31"><defs><style>.cls-1{fill:#362c5f;fill-rule:evenodd;}</style></defs><path class="cls-1" d="M159.54,246.29c0-17.71-.07-35.41.07-53.12,0-3-.82-3.91-3.81-3.79-5.51.22-11.05,0-16.57.1-2.24.06-3.06-.56-3-2.93q.17-16.58,0-33.15c0-2.12.62-2.82,2.77-2.77,5.65.13,11.31-.16,16.95.12,3.27.16,3.94-1,3.87-4q-.28-12.6,0-25.23c.23-10.27,3-19.86,9.1-28.21,7.74-10.57,18.75-15.41,31.44-16,13-.58,26.11-.26,39.17-.4,1.82,0,2.36.63,2.35,2.4q-.09,16.75,0,33.52c0,2-.63,2.6-2.58,2.57-6.28-.1-12.56,0-18.84,0-8.35,0-13.36,4.33-13.88,12.6-.42,6.63-.11,13.3-.27,20,0,2.37,1.36,2.2,2.92,2.2,9.54,0,19.09.1,28.63-.07,2.8,0,3.73.6,3.4,3.55-1.2,11.1-2.23,22.22-3.18,33.35-.22,2.51-1.36,3-3.62,2.95-7.53-.11-15.06-.08-22.59,0-5.41,0-4.89-.79-4.89,4.73,0,34.65-.07,69.31.08,104,0,3.66-.92,4.57-4.54,4.51q-19.4-.36-38.8,0c-3.64.07-4.24-1.16-4.22-4.41C159.61,281.19,159.54,263.74,159.54,246.29Z" transform="translate(-136.23 -76.91)"/></svg>
